HIERARCHY
ROOT Hips
{
 OFFSET 0.000000 0.000000 0.000000
 CHANNELS 6 Xposition Yposition Zposition Yrotation Xrotation Zrotation
 JOINT Chest
 {
  OFFSET 0.000000 9.588913 -0.003946
  CHANNELS 3 Yrotation Xrotation Zrotation
  JOINT Chest2
  {
   OFFSET 0.000000 9.541882 0.008053
   CHANNELS 3 Yrotation Xrotation Zrotation
   JOINT Chest3
   {
    OFFSET 0.000000 9.501360 0.000000
    CHANNELS 3 Yrotation Xrotation Zrotation
    JOINT Chest4
    {
     OFFSET 0.000000 9.491660 0.000000
     CHANNELS 3 Yrotation Xrotation Zrotation
     JOINT Neck
     {
      OFFSET 0.000000 14.331917 0.000000
      CHANNELS 3 Yrotation Xrotation Zrotation
      JOINT Head
      {
       OFFSET 0.000000 8.884799 0.017034
       CHANNELS 3 Yrotation Xrotation Zrotation
       End Site
       {
        OFFSET 0.000000 16.896195 0.008993
       }
      }
     }
     JOINT RightCollar
     {
      OFFSET -2.923010 9.499495 0.000000
      CHANNELS 3 Yrotation Xrotation Zrotation
      JOINT RightShoulder
      {
       OFFSET -13.795216 0.000000 0.000000
       CHANNELS 3 Yrotation Xrotation Zrotation
       JOINT RightElbow
       {
        OFFSET -30.272209 0.000000 0.000000
        CHANNELS 3 Yrotation Xrotation Zrotation
        JOINT RightWrist
        {
         OFFSET -24.478199 0.000000 0.000000
         CHANNELS 3 Yrotation Xrotation Zrotation
         End Site
         {
          OFFSET -18.090752 0.000000 0.000000
         }
        }
       }
      }
     }
     JOINT LeftCollar
     {
      OFFSET 2.923010 9.499495 0.000000
      CHANNELS 3 Yrotation Xrotation Zrotation
      JOINT LeftShoulder
      {
       OFFSET 13.795216 0.000000 0.000000
       CHANNELS 3 Yrotation Xrotation Zrotation
       JOINT LeftElbow
       {
        OFFSET 30.272209 0.000000 0.000000
        CHANNELS 3 Yrotation Xrotation Zrotation
        JOINT LeftWrist
        {
         OFFSET 24.478199 0.000000 0.000000
         CHANNELS 3 Yrotation Xrotation Zrotation
         End Site
         {
          OFFSET 18.090752 0.000000 0.000000
         }
        }
       }
      }
     }
    }
   }
  }
 }
 JOINT RightHip
 {
  OFFSET -7.826875 0.019532 0.001973
  CHANNELS 3 Yrotation Xrotation Zrotation
  JOINT RightKnee
  {
   OFFSET 0.000000 -40.546152 -0.001885
   CHANNELS 3 Yrotation Xrotation Zrotation
   JOINT RightAnkle
   {
    OFFSET 0.000000 -39.417092 -0.003189
    CHANNELS 3 Yrotation Xrotation Zrotation
    JOINT RightToe
    {
     OFFSET 0.000000 -7.579396 17.243563
     CHANNELS 3 Yrotation Xrotation Zrotation
     End Site
     {
      OFFSET 0.000000 -1.500329 6.694466
     }
    }
   }
  }
 }
 JOINT LeftHip
 {
  OFFSET 7.826875 0.019532 0.001973
  CHANNELS 3 Yrotation Xrotation Zrotation
  JOINT LeftKnee
  {
   OFFSET 0.000000 -40.546152 -0.001885
   CHANNELS 3 Yrotation Xrotation Zrotation
   JOINT LeftAnkle
   {
    OFFSET 0.000000 -39.417092 -0.003189
    CHANNELS 3 Yrotation Xrotation Zrotation
    JOINT LeftToe
    {
     OFFSET 0.000000 -7.579396 17.243563
     CHANNELS 3 Yrotation Xrotation Zrotation
     End Site
     {
      OFFSET 0.000000 -1.500329 6.694466
     }
    }
   }
  }
 }
}
MOTION
Frames: 14
Frame Time: 0.008333
0.000000 87.345680 0.000000 0.000000 -5.767889 0.000000 0.000000 11.653876 0.000000 0.000000 -5.885988 0.000000 0.000000 -0.000000 0.000000 0.000000 -0.000000 0.000000 0.000000 12.528808 0.000000 0.000000 0.711711 0.000000 0.000000 -0.000000 0.000000 0.000000 -0.000000 0.000000 2.309063 -0.000000 0.000000 -2.309063 -0.000000 -0.000000 0.000000 -0.000000 0.000000 0.000000 0.000000 0.000000 -2.309063 0.000000 0.000000 2.309063 -0.000000 0.000000 0.000000 8.520374 0.000000 0.000000 1.905768 0.000000 -0.000000 -4.658254 0.000000 0.000000 -0.000000 0.000000 0.000000 8.520374 0.000000 0.000000 1.905768 0.000000 -0.000000 -4.658254 0.000000 0.000000 -0.000000 0.000000
33.079238 89.170985 -17.535359 51.690469 -6.862757 -0.783103 0.513877 2.018813 1.161371 0.253015 1.164122 0.670247 0.318412 1.454683 0.838655 0.253015 1.164122 0.670247 -2.804787 20.064702 -1.332887 -2.685241 -4.429555 -0.780435 -1.156189 0.248210 -2.918967 -2.812824 -3.814921 90.397811 6.637641 5.118519 1.087413 2.179633 -6.614827 -3.609994 -4.521870 -1.196831 1.335647 11.593135 -0.396061 -91.553993 0.341647 2.055758 -0.051357 -1.569361 -1.124915 3.607575 -4.400106 10.155570 -1.788544 3.112256 1.080694 -0.924846 2.421612 -3.943471 3.123666 -0.032706 0.009304 -0.066293 4.720363 9.989532 1.353529 -4.586011 2.565989 0.401265 -4.132092 -5.610722 -0.846780 0.013283 0.028836 -0.027583
33.067257 89.170539 -17.546878 51.707906 -6.808603 -0.773351 0.514116 1.984771 1.153963 0.249013 1.145323 0.668888 0.313370 1.431192 0.836930 0.249013 1.145323 0.668888 -2.800937 20.070658 -1.328831 -2.682098 -4.422921 -0.777009 -1.160969 0.267035 -2.909410 -2.839830 -3.800283 90.421228 6.629539 5.116151 1.078567 2.167052 -6.612167 -3.605815 -4.510994 -1.182157 1.336027 11.581223 -0.390280 -91.551764 0.349142 2.113561 -0.062586 -1.562891 -1.123853 3.605808 -4.510244 10.178170 -1.802176 3.259880 0.895800 -0.953600 2.367589 -3.865895 3.159671 -0.031963 0.016449 -0.069192 4.782699 9.939243 1.352242 -4.608798 2.537305 0.394456 -4.162991 -5.585394 -0.828882 0.015328 0.032619 -0.031488
33.054661 89.169442 -17.559414 51.732960 -6.751359 -0.761546 0.510193 1.951700 1.143638 0.243633 1.126500 0.667520 0.306605 1.407675 0.835188 0.243633 1.126500 0.667520 -2.794096 20.075833 -1.324512 -2.675797 -4.417269 -0.773972 -1.163556 0.283036 -2.898791 -2.860284 -3.788015 90.443245 6.621170 5.110304 1.068742 2.155587 -6.609036 -3.603865 -4.499758 -1.170758 1.337658 11.568901 -0.384541 -91.549991 0.356993 2.161718 -0.069666 -1.563239 -1.119808 3.599445 -4.626975 10.179283 -1.818850 3.401730 0.746359 -0.975169 2.312570 -3.810666 3.183585 -0.032450 0.022594 -0.066891 4.832397 9.883668 1.346929 -4.630429 2.512293 0.388550 -4.193798 -5.561754 -0.809909 0.017505 0.037116 -0.036076
33.042373 89.167361 -17.572208 51.761576 -6.693063 -0.746948 0.504254 1.920922 1.131289 0.238202 1.107974 0.666068 0.299778 1.384528 0.833343 0.238202 1.107974 0.666068 -2.785952 20.082094 -1.320404 -2.668063 -4.410419 -0.771459 -1.165130 0.296130 -2.888027 -2.877488 -3.778979 90.464823 6.609502 5.103278 1.057335 2.144979 -6.603429 -3.605505 -4.487568 -1.163795 1.338135 11.553412 -0.377154 -91.548610 0.363980 2.203406 -0.072150 -1.568364 -1.115528 3.592145 -4.747729 10.160053 -1.837567 3.539028 0.635289 -0.990794 2.253355 -3.780384 3.191207 -0.033521 0.028259 -0.057131 4.874727 9.824996 1.336080 -4.652144 2.493131 0.385882 -4.222853 -5.542444 -0.790682 0.019902 0.042418 -0.041060
33.031382 89.164028 -17.584407 51.792277 -6.636141 -0.729130 0.497311 1.892948 1.117011 0.233251 1.089992 0.664458 0.293552 1.362061 0.831303 0.233252 1.089992 0.664458 -2.778154 20.091429 -1.316786 -2.660624 -4.400053 -0.769407 -1.165859 0.306203 -2.876273 -2.891206 -3.772465 90.483566 6.591439 5.095358 1.044295 2.135391 -6.593367 -3.608411 -4.476026 -1.159963 1.336429 11.536246 -0.367269 -91.548098 0.369334 2.238582 -0.072159 -1.575957 -1.110501 3.586146 -4.867277 10.123367 -1.855813 3.661858 0.563854 -1.004545 2.194117 -3.776819 3.183329 -0.034943 0.033519 -0.040509 4.911902 9.767157 1.320136 -4.673922 2.478582 0.385377 -4.250282 -5.527976 -0.770175 0.022671 0.048664 -0.046470
33.022623 89.159350 -17.594866 51.826519 -6.584604 -0.709378 0.488359 1.868112 1.101362 0.228193 1.073432 0.662462 0.287192 1.341371 0.828782 0.228193 1.073432 0.662462 -2.770006 20.103283 -1.313615 -2.652736 -4.386826 -0.767923 -1.166527 0.314853 -2.862339 -2.897350 -3.769357 90.497680 6.569229 5.084443 1.028812 2.125134 -6.579642 -3.608391 -4.465758 -1.156045 1.334706 11.520420 -0.358126 -91.548052 0.375417 2.265072 -0.071505 -1.585754 -1.107181 3.581273 -4.980451 10.077410 -1.870362 3.758727 0.526494 -1.019895 2.139112 -3.795940 3.164964 -0.036852 0.036940 -0.020719 4.939820 9.717171 1.301931 -4.695940 2.463667 0.385073 -4.275084 -5.516853 -0.749769 0.026094 0.056201 -0.050807
33.017073 89.153447 -17.602359 51.865316 -6.544457 -0.689000 0.477482 1.848328 1.086089 0.222949 1.059900 0.660268 0.280606 1.324467 0.826015 0.222949 1.059900 0.660268 -2.762039 20.113883 -1.311709 -2.644742 -4.375010 -0.767741 -1.169521 0.322750 -2.848907 -2.898794 -3.770635 90.508606 6.547125 5.074622 1.012709 2.110929 -6.566748 -3.603775 -4.457577 -1.151076 1.333621 11.504338 -0.355393 -91.548240 0.384288 2.280846 -0.070646 -1.593003 -1.104275 3.577812 -5.088710 10.030943 -1.880776 3.829407 0.519770 -1.038437 2.090403 -3.834072 3.141924 -0.038843 0.037383 -0.001805 4.954679 9.681654 1.282606 -4.715617 2.448700 0.386213 -4.296955 -5.509914 -0.732875 0.029707 0.064875 -0.052344
33.015260 89.146575 -17.606132 51.910414 -6.519392 -0.668569 0.464836 1.835541 1.071964 0.217280 1.050514 0.657755 0.273496 1.312747 0.822851 0.217280 1.050514 0.657755 -2.755343 20.119709 -1.310894 -2.637810 -4.368584 -0.768411 -1.174839 0.328943 -2.836254 -2.900343 -3.773750 90.517609 6.529905 5.069625 0.999270 2.090442 -6.557978 -3.597592 -4.452292 -1.146130 1.335394 11.486515 -0.360110 -91.551056 0.393867 2.286715 -0.067998 -1.593527 -1.099033 3.576398 -5.195272 9.990652 -1.890202 3.883937 0.538501 -1.058385 2.045725 -3.887165 3.118846 -0.040388 0.034791 0.013267 4.955064 9.662001 1.261879 -4.732078 2.439017 0.390570 -4.315952 -5.509615 -0.720449 0.032852 0.074178 -0.051496
33.017088 89.139100 -17.605574 51.962403 -6.510942 -0.649710 0.450120 1.829930 1.059461 0.210826 1.045497 0.655046 0.265411 1.306488 0.819442 0.210826 1.045497 0.655046 -2.750003 20.120576 -1.310714 -2.632132 -4.367762 -0.769428 -1.180699 0.334593 -2.823755 -2.903220 -3.777528 90.527553 6.519631 5.065337 0.987297 2.064495 -6.550981 -3.592027 -4.449087 -1.140868 1.339379 11.468828 -0.369480 -91.556330 0.401526 2.285038 -0.062113 -1.589377 -1.092058 3.576136 -5.296784 9.962484 -1.899768 3.930797 0.573921 -1.076814 2.000017 -3.948530 3.096440 -0.041454 0.029048 0.024529 4.944090 9.658659 1.242517 -4.745630 2.436366 0.397542 -4.334229 -5.516535 -0.711962 0.035243 0.083867 -0.049082
33.022307 89.131466 -17.600194 52.021175 -6.520309 -0.633422 0.432830 1.830814 1.049717 0.203451 1.044641 0.653164 0.256185 1.305432 0.817069 0.203451 1.044640 0.653164 -2.746988 20.119011 -1.313012 -2.628359 -4.369623 -0.772552 -1.185810 0.340856 -2.817324 -2.910653 -3.781291 90.540519 6.514833 5.059991 0.976679 2.035065 -6.540739 -3.584861 -4.444544 -1.133536 1.338721 11.450447 -0.383146 -91.560579 0.408508 2.276916 -0.054656 -1.584742 -1.087012 3.575861 -5.392064 9.949790 -1.909142 3.973627 0.621585 -1.093504 1.951835 -4.014304 3.074830 -0.042091 0.020473 0.032858 4.922659 9.674417 1.226560 -4.753979 2.437115 0.406184 -4.353265 -5.528427 -0.707518 0.036412 0.093523 -0.045345
33.030213 89.124077 -17.590059 52.087637 -6.544945 -0.619371 0.412728 1.837130 1.043245 0.194892 1.047209 0.652115 0.245487 1.308658 0.815734 0.194892 1.047209 0.652114 -2.747293 20.116994 -1.318658 -2.627383 -4.371876 -0.778495 -1.188696 0.347405 -2.818605 -2.925061 -3.782092 90.554727 6.517657 5.055731 0.969421 2.001577 -6.525769 -3.575890 -4.436778 -1.123562 1.332658 11.430321 -0.400744 -91.563057 0.414824 2.264308 -0.049050 -1.582939 -1.084291 3.575688 -5.480696 9.950678 -1.919566 4.013286 0.679358 -1.107252 1.902311 -4.082353 3.055311 -0.041426 0.009600 0.037765 4.890031 9.705725 1.214135 -4.755632 2.441962 0.414998 -4.373735 -5.544342 -0.706754 0.036571 0.102377 -0.040455
33.039310 89.117232 -17.575507 52.162748 -6.577835 -0.608790 0.391328 1.847889 1.040436 0.185432 1.052450 0.651323 0.233668 1.315227 0.814720 0.185432 1.052450 0.651323 -2.752183 20.113184 -1.326249 -2.630864 -4.376020 -0.785468 -1.190544 0.350240 -2.824024 -2.944105 -3.777715 90.571270 6.530411 5.053063 0.964634 1.967202 -6.510404 -3.567582 -4.431704 -1.116475 1.325615 11.411208 -0.419487 -91.563920 0.417706 2.251017 -0.047820 -1.583428 -1.081361 3.578088 -5.556664 9.959404 -1.930192 4.044160 0.743464 -1.113939 1.853594 -4.147695 3.036153 -0.038690 -0.004119 0.039726 4.849515 9.741304 1.207169 -4.750262 2.456811 0.422054 -4.398303 -5.565599 -0.708143 0.036284 0.110119 -0.035081
33.048066 89.111187 -17.556925 52.246163 -6.611930 -0.603140 0.370889 1.861993 1.041597 0.176160 1.059604 0.650782 0.222090 1.324186 0.814021 0.176160 1.059604 0.650782 -2.763616 20.105735 -1.334150 -2.641253 -4.384104 -0.791277 -1.196012 0.343653 -2.832657 -2.967443 -3.767872 90.592285 6.549924 5.054144 0.961886 1.937401 -6.497672 -3.560198 -4.434496 -1.119193 1.319871 11.391741 -0.437071 -91.563099 0.417456 2.239522 -0.049483 -1.585651 -1.080936 3.584253 -5.615071 9.970741 -1.937689 4.059319 0.809373 -1.112326 1.808442 -4.204602 3.013285 -0.034401 -0.020972 0.041380 4.804265 9.773598 1.206803 -4.740217 2.480384 0.427783 -4.425882 -5.590380 -0.710907 0.035331 0.116967 -0.030391
